<svg xmlns="http://www.w3.org/2000/svg" xmlns:xlink="http://www.w3.org/1999/xlink" width="40" zoomAndPan="magnify" viewBox="0 0 30 30.000001" height="40" preserveAspectRatio="xMidYMid meet" version="1.0"><defs><clipPath id="1a3e779b66"><path d="M 0.484375 1.820312 L 29.515625 1.820312 L 29.515625 27.222656 L 0.484375 27.222656 Z M 0.484375 1.820312 " clip-rule="nonzero"/></clipPath></defs><g clip-path="url(#1a3e779b66)"><path fill="#191414" d="M 11.304688 25.855469 L 18.25 25.855469 L 18.25 18.121094 C 18.25 17.570312 17.890625 17.210938 17.339844 17.210938 L 12.226562 17.210938 C 11.675781 17.210938 11.304688 17.570312 11.304688 18.121094 Z M 1.511719 14.695312 C 1.847656 14.695312 2.125 14.515625 2.375 14.3125 L 14.359375 4.246094 C 14.492188 4.136719 14.648438 4.078125 14.777344 4.078125 C 14.921875 4.078125 15.066406 4.136719 15.199219 4.246094 L 27.191406 14.3125 C 27.433594 14.515625 27.707031 14.695312 28.042969 14.695312 C 28.691406 14.695312 29.074219 14.230469 29.074219 13.738281 C 29.074219 13.464844 28.964844 13.175781 28.691406 12.960938 L 16.214844 2.484375 C 15.761719 2.101562 15.269531 1.910156 14.777344 1.910156 C 14.289062 1.910156 13.796875 2.101562 13.339844 2.484375 L 0.867188 12.960938 C 0.605469 13.175781 0.484375 13.464844 0.484375 13.738281 C 0.484375 14.230469 0.867188 14.695312 1.511719 14.695312 Z M 22.570312 8.339844 L 25.578125 10.878906 L 25.578125 5.476562 C 25.578125 4.953125 25.242188 4.617188 24.714844 4.617188 L 23.433594 4.617188 C 22.917969 4.617188 22.570312 4.953125 22.570312 5.476562 Z M 6.683594 27.085938 L 22.882812 27.085938 C 24.582031 27.085938 25.578125 26.117188 25.578125 24.441406 L 25.578125 11.175781 L 23.648438 9.871094 L 23.648438 23.964844 C 23.648438 24.742188 23.230469 25.160156 22.476562 25.160156 L 7.09375 25.160156 C 6.324219 25.160156 5.90625 24.742188 5.90625 23.964844 L 5.90625 9.882812 L 3.980469 11.175781 L 3.980469 24.441406 C 3.980469 26.128906 4.972656 27.085938 6.683594 27.085938 Z M 6.683594 27.085938 " fill-opacity="0.85" fill-rule="nonzero"/></g></svg>